<?xml version="1.0" encoding="UTF-8"?>
<svg id="Layer_2" data-name="Layer 2" xmlns="http://www.w3.org/2000/svg" viewBox="0 0 192.44 343.58">
  <defs>
    <style>
      .cls-1 {
        fill: #00a99d;
      }

      .cls-2 {
        fill: #009245;
      }

      .cls-3 {
        fill: #7ac943;
      }
    </style>
  </defs>
  <g id="Layer_1-2" data-name="Layer 1">
    <path class="cls-1" d="M152.21,315.84c-.08-.92-.2-1.86-.36-2.79-.27-1.55-.62-3.05-1.08-4.5-3.95-10.88-15.22-17.71-27.02-15.7-.4,.07-.81,.15-1.21,.24h-.02c-.73,.22-1.46,.43-2.21,.61-1.03,.26-2.08,.48-3.15,.65-7.41,1.27-14.7,.58-21.35-1.69-14.6-4.98-26.08-17.6-28.86-33.87L43.43,121.14l-1.62-9.51c-3.48-7.77-11.86-12.54-20.67-11.11-8.67,1.41-15.05,8.4-16.05,16.68l1.85,10.84,25.36,148.46c5.53,32.41,29.69,56.97,59.61,64.59,10.61,2.71,21.96,3.28,33.45,1.32,2.78-.48,5.51-1.09,8.16-1.83,.87-.24,1.71-.49,2.57-.77,.02,0,.04,0,.05-.02,9.96-3.59,16.54-13.3,16.06-23.97Zm-25.05,7.37c.08-.92,.11-1.87,.11-2.82,0-1.57-.1-3.11-.31-4.62,.26,1.41,.39,2.87,.39,4.36,0,1.05-.07,2.07-.2,3.08Z"/>
    <path class="cls-1" d="M127.16,323.21c.08-.92,.11-1.87,.11-2.82,0-1.57-.1-3.11-.31-4.62,.26,1.41,.39,2.87,.39,4.36,0,1.05-.07,2.07-.2,3.08Z"/>
    <path class="cls-2" d="M127.16,323.21c.08-.92,.11-1.87,.11-2.82,0-1.57-.1-3.11-.31-4.62,.26,1.41,.39,2.87,.39,4.36,0,1.05-.07,2.07-.2,3.08Z"/>
    <path class="cls-2" d="M148.39,334.8c-3.89,1.98-7.98,3.66-12.25,5,9.96-3.59,16.54-13.3,16.06-23.97-.04-1.02-.15-2.03-.32-3.07-.25-1.47-.62-2.88-1.11-4.23-3.95-10.88-15.22-17.71-27.02-15.7-.4,.07-.81,.15-1.21,.24,3.88-1.18,7.5-2.87,10.79-4.99,14.25-9.15,22.42-26.21,19.39-43.96l-8.23-48.16c-.69-4.03,2.02-7.86,6.06-8.55l22-3.76c4.03-.69,7.86,2.02,8.54,6.05l10.18,59.62c6.09,35.67-12.24,69.86-42.88,85.45Z"/>
    <path class="cls-3" d="M161.65,174.89l-86.68,14.8c-10.1,1.73-19.83-4.92-21.64-15-1.81-10.16,5-19.83,15.15-21.57l66.74-11.4-9.6-56.19c-2.02-11.85-8.65-21.75-17.74-28.18-9.09-6.43-20.63-9.4-32.48-7.38-.11,.02-.21,.04-.32,.06-23.51,4.19-39.27,26.58-35.24,50.16l1.95,11.45c-3.48-7.77-11.86-12.54-20.67-11.11-8.67,1.41-15.05,8.4-16.05,16.68l-3.92-22.97C-6.33,50.33,23.18,8.66,67.08,1.17c.19-.04,.38-.07,.58-.1,21.74-3.55,42.91,1.96,59.61,13.78,16.85,11.93,29.13,30.28,32.88,52.23l15.12,88.58c1.55,9.07-4.55,17.68-13.62,19.23Z"/>
  </g>
</svg>